<svg xmlns="http://www.w3.org/2000/svg" xmlns:xlink="http://www.w3.org/1999/xlink" version="1.1" data-diagram-type="CLASS" style="width:1583px;height:1154px;background:#FFFFFF;" width="1583px" height="1154px" viewBox="0 0 1583 1154" zoomAndPan="magnify" preserveAspectRatio="none" contentStyleType="text/css"><?plantuml 1.2026.7?><defs/><g font-family="sans-serif" lengthAdjust="spacing"><g class="title" data-source-line="1"><text x="621.193" y="22.995" fill="#000" font-size="14" textLength="334.147" font-weight="700">Схема БД площадки (migrations/kitchen)</text></g><!--class venues--><g class="entity" data-qualified-name="venues" id="ent0001" data-source-line="14"><rect x="387.51" y="44.297" width="204.302" height="207.594" fill="#F5F7FA" style="stroke:#4A6785;stroke-width:0.5;" rx="2.5" ry="2.5"/><text x="466.191" y="61.364" fill="#1F2933" font-size="13" textLength="46.941">venues</text><line x1="388.51" y1="69.43" x2="590.812" y2="69.43" style="stroke:#4A6785;stroke-width:0.5;"/><g data-visibility-modifier="IE_MANDATORY"><ellipse cx="398.51" cy="82.496" rx="3" ry="3" fill="#000" style="stroke:#000;stroke-width:1;"/></g><text x="406.51" y="85.497" fill="#000" font-size="13" textLength="89.254">id : uuid «PK»</text><line x1="388.51" y1="92.563" x2="590.812" y2="92.563" style="stroke:#4A6785;stroke-width:1;"/><g data-visibility-modifier="IE_MANDATORY"><ellipse cx="398.51" cy="105.629" rx="3" ry="3" fill="#000" style="stroke:#000;stroke-width:1;"/></g><text x="406.51" y="108.629" fill="#000" font-size="13" textLength="105.193">slug : text «UQ»</text><g data-visibility-modifier="IE_MANDATORY"><ellipse cx="398.51" cy="120.762" rx="3" ry="3" fill="#000" style="stroke:#000;stroke-width:1;"/></g><text x="406.51" y="123.762" fill="#000" font-size="13" textLength="75.397">name : text</text><text x="406.51" y="138.895" fill="#000" font-size="13" textLength="110.811">description : text</text><g data-visibility-modifier="IE_MANDATORY"><ellipse cx="398.51" cy="151.027" rx="3" ry="3" fill="#000" style="stroke:#000;stroke-width:1;"/></g><text x="406.51" y="154.028" fill="#000" font-size="13" textLength="89.889">address : text</text><text x="406.51" y="169.161" fill="#000" font-size="13" textLength="164.76">lat, lon : double precision</text><g data-visibility-modifier="IE_MANDATORY"><ellipse cx="398.51" cy="181.293" rx="3" ry="3" fill="#000" style="stroke:#000;stroke-width:1;"/></g><text x="406.51" y="184.293" fill="#000" font-size="13" textLength="121.018">is_active : boolean</text><g data-visibility-modifier="IE_MANDATORY"><ellipse cx="398.51" cy="196.426" rx="3" ry="3" fill="#000" style="stroke:#000;stroke-width:1;"/></g><text x="406.51" y="199.426" fill="#000" font-size="13" textLength="113.947">is_open : boolean</text><g data-visibility-modifier="IE_MANDATORY"><ellipse cx="398.51" cy="211.559" rx="3" ry="3" fill="#000" style="stroke:#000;stroke-width:1;"/></g><text x="406.51" y="214.559" fill="#000" font-size="13" textLength="172.275">min_order_amount : bigint</text><g data-visibility-modifier="IE_MANDATORY"><ellipse cx="398.51" cy="226.691" rx="3" ry="3" fill="#000" style="stroke:#000;stroke-width:1;"/></g><text x="406.51" y="229.692" fill="#000" font-size="13" textLength="128.984">delivery_fee : bigint</text><g data-visibility-modifier="IE_MANDATORY"><ellipse cx="398.51" cy="241.824" rx="3" ry="3" fill="#000" style="stroke:#000;stroke-width:1;"/></g><text x="406.51" y="244.825" fill="#000" font-size="13" textLength="179.302">avg_cook_minutes : integer</text></g><!--class cuisines--><g class="entity" data-qualified-name="cuisines" id="ent0002" data-source-line="29"><rect x="33.83" y="97.267" width="135.678" height="101.664" fill="#F5F7FA" style="stroke:#4A6785;stroke-width:0.5;" rx="2.5" ry="2.5"/><text x="75.472" y="114.334" fill="#1F2933" font-size="13" textLength="52.394">cuisines</text><line x1="34.83" y1="122.4" x2="168.508" y2="122.4" style="stroke:#4A6785;stroke-width:0.5;"/><g data-visibility-modifier="IE_MANDATORY"><ellipse cx="44.83" cy="135.466" rx="3" ry="3" fill="#000" style="stroke:#000;stroke-width:1;"/></g><text x="52.83" y="138.467" fill="#000" font-size="13" textLength="89.254">id : uuid «PK»</text><line x1="34.83" y1="145.533" x2="168.508" y2="145.533" style="stroke:#4A6785;stroke-width:1;"/><g data-visibility-modifier="IE_MANDATORY"><ellipse cx="44.83" cy="158.599" rx="3" ry="3" fill="#000" style="stroke:#000;stroke-width:1;"/></g><text x="52.83" y="161.599" fill="#000" font-size="13" textLength="105.193">slug : text «UQ»</text><g data-visibility-modifier="IE_MANDATORY"><ellipse cx="44.83" cy="173.732" rx="3" ry="3" fill="#000" style="stroke:#000;stroke-width:1;"/></g><text x="52.83" y="176.732" fill="#000" font-size="13" textLength="75.397">name : text</text><g data-visibility-modifier="IE_MANDATORY"><ellipse cx="44.83" cy="188.865" rx="3" ry="3" fill="#000" style="stroke:#000;stroke-width:1;"/></g><text x="52.83" y="191.865" fill="#000" font-size="13" textLength="110.678">position : integer</text></g><!--class venue_cuisines--><g class="entity" data-qualified-name="venue_cuisines" id="ent0003" data-source-line="37"><rect x="7" y="387.557" width="189.328" height="86.531" fill="#F5F7FA" style="stroke:#4A6785;stroke-width:0.5;" rx="2.5" ry="2.5"/><text x="52.133" y="404.624" fill="#1F2933" font-size="13" textLength="99.062">venue_cuisines</text><line x1="8" y1="412.69" x2="195.328" y2="412.69" style="stroke:#4A6785;stroke-width:0.5;"/><g data-visibility-modifier="IE_MANDATORY"><ellipse cx="18" cy="425.756" rx="3" ry="3" fill="#000" style="stroke:#000;stroke-width:1;"/></g><text x="26" y="428.757" fill="#000" font-size="13" textLength="135.561">venue_id : uuid «FK»</text><g data-visibility-modifier="IE_MANDATORY"><ellipse cx="18" cy="440.889" rx="3" ry="3" fill="#000" style="stroke:#000;stroke-width:1;"/></g><text x="26" y="443.889" fill="#000" font-size="13" textLength="141.013">cuisine_id : uuid «FK»</text><line x1="8" y1="450.955" x2="195.328" y2="450.955" style="stroke:#4A6785;stroke-width:1;"/><text x="13" y="467.022" fill="#000" font-size="13" textLength="177.328">«PK (venue_id, cuisine_id)»</text></g><!--class keys--><g class="entity" data-qualified-name="keys" id="ent0004" data-source-line="44"><rect x="829.65" y="379.987" width="192.02" height="101.664" fill="#F5F7FA" style="stroke:#4A6785;stroke-width:0.5;" rx="2.5" ry="2.5"/><text x="874.164" y="397.054" fill="#1F2933" font-size="13" textLength="102.991">venue_api_keys</text><line x1="830.65" y1="405.12" x2="1020.67" y2="405.12" style="stroke:#4A6785;stroke-width:0.5;"/><g data-visibility-modifier="IE_MANDATORY"><ellipse cx="840.65" cy="418.186" rx="3" ry="3" fill="#000" style="stroke:#000;stroke-width:1;"/></g><text x="848.65" y="421.187" fill="#000" font-size="13" textLength="89.254">id : uuid «PK»</text><line x1="830.65" y1="428.252" x2="1020.67" y2="428.252" style="stroke:#4A6785;stroke-width:1;"/><g data-visibility-modifier="IE_MANDATORY"><ellipse cx="840.65" cy="441.319" rx="3" ry="3" fill="#000" style="stroke:#000;stroke-width:1;"/></g><text x="848.65" y="444.319" fill="#000" font-size="13" textLength="135.561">venue_id : uuid «FK»</text><g data-visibility-modifier="IE_MANDATORY"><ellipse cx="840.65" cy="456.452" rx="3" ry="3" fill="#000" style="stroke:#000;stroke-width:1;"/></g><text x="848.65" y="459.452" fill="#000" font-size="13" textLength="150.376">key_hash : bytea «UQ»</text><text x="848.65" y="474.585" fill="#000" font-size="13" textLength="167.02">revoked_at : timestamptz</text></g><!--class categories--><g class="entity" data-qualified-name="categories" id="ent0005" data-source-line="52"><rect x="302.64" y="364.857" width="214.04" height="131.93" fill="#F5F7FA" style="stroke:#4A6785;stroke-width:0.5;" rx="2.5" ry="2.5"/><text x="353.769" y="381.924" fill="#1F2933" font-size="13" textLength="111.782">menu_categories</text><line x1="303.64" y1="389.99" x2="515.68" y2="389.99" style="stroke:#4A6785;stroke-width:0.5;"/><g data-visibility-modifier="IE_MANDATORY"><ellipse cx="313.64" cy="403.056" rx="3" ry="3" fill="#000" style="stroke:#000;stroke-width:1;"/></g><text x="321.64" y="406.057" fill="#000" font-size="13" textLength="89.254">id : uuid «PK»</text><line x1="303.64" y1="413.122" x2="515.68" y2="413.122" style="stroke:#4A6785;stroke-width:1;"/><g data-visibility-modifier="IE_MANDATORY"><ellipse cx="313.64" cy="426.189" rx="3" ry="3" fill="#000" style="stroke:#000;stroke-width:1;"/></g><text x="321.64" y="429.189" fill="#000" font-size="13" textLength="135.561">venue_id : uuid «FK»</text><g data-visibility-modifier="IE_MANDATORY"><ellipse cx="313.64" cy="441.322" rx="3" ry="3" fill="#000" style="stroke:#000;stroke-width:1;"/></g><text x="321.64" y="444.322" fill="#000" font-size="13" textLength="110.843">external_id : text</text><g data-visibility-modifier="IE_MANDATORY"><ellipse cx="313.64" cy="456.455" rx="3" ry="3" fill="#000" style="stroke:#000;stroke-width:1;"/></g><text x="321.64" y="459.455" fill="#000" font-size="13" textLength="75.397">name : text</text><g data-visibility-modifier="IE_MANDATORY"><ellipse cx="313.64" cy="471.587" rx="3" ry="3" fill="#000" style="stroke:#000;stroke-width:1;"/></g><text x="321.64" y="474.588" fill="#000" font-size="13" textLength="110.678">position : integer</text><text x="321.64" y="489.721" fill="#000" font-size="13" textLength="189.04">«UQ (venue_id, external_id)»</text></g><!--class items--><g class="entity" data-qualified-name="items" id="ent0006" data-source-line="62"><rect x="364.64" y="609.757" width="214.04" height="192.461" fill="#F5F7FA" style="stroke:#4A6785;stroke-width:0.5;" rx="2.5" ry="2.5"/><text x="431.768" y="626.824" fill="#1F2933" font-size="13" textLength="79.784">menu_items</text><line x1="365.64" y1="634.89" x2="577.68" y2="634.89" style="stroke:#4A6785;stroke-width:0.5;"/><g data-visibility-modifier="IE_MANDATORY"><ellipse cx="375.64" cy="647.956" rx="3" ry="3" fill="#000" style="stroke:#000;stroke-width:1;"/></g><text x="383.64" y="650.957" fill="#000" font-size="13" textLength="89.254">id : uuid «PK»</text><line x1="365.64" y1="658.023" x2="577.68" y2="658.023" style="stroke:#4A6785;stroke-width:1;"/><g data-visibility-modifier="IE_MANDATORY"><ellipse cx="375.64" cy="671.089" rx="3" ry="3" fill="#000" style="stroke:#000;stroke-width:1;"/></g><text x="383.64" y="674.089" fill="#000" font-size="13" textLength="135.561">venue_id : uuid «FK»</text><g data-visibility-modifier="IE_MANDATORY"><ellipse cx="375.64" cy="686.222" rx="3" ry="3" fill="#000" style="stroke:#000;stroke-width:1;"/></g><text x="383.64" y="689.222" fill="#000" font-size="13" textLength="152.845">category_id : uuid «FK»</text><g data-visibility-modifier="IE_MANDATORY"><ellipse cx="375.64" cy="701.355" rx="3" ry="3" fill="#000" style="stroke:#000;stroke-width:1;"/></g><text x="383.64" y="704.355" fill="#000" font-size="13" textLength="110.843">external_id : text</text><g data-visibility-modifier="IE_MANDATORY"><ellipse cx="375.64" cy="716.487" rx="3" ry="3" fill="#000" style="stroke:#000;stroke-width:1;"/></g><text x="383.64" y="719.488" fill="#000" font-size="13" textLength="75.397">name : text</text><g data-visibility-modifier="IE_MANDATORY"><ellipse cx="375.64" cy="731.62" rx="3" ry="3" fill="#000" style="stroke:#000;stroke-width:1;"/></g><text x="383.64" y="734.621" fill="#000" font-size="13" textLength="82.063">price : bigint</text><g data-visibility-modifier="IE_MANDATORY"><ellipse cx="375.64" cy="746.753" rx="3" ry="3" fill="#000" style="stroke:#000;stroke-width:1;"/></g><text x="383.64" y="749.753" fill="#000" font-size="13" textLength="110.678">position : integer</text><g data-visibility-modifier="IE_MANDATORY"><ellipse cx="375.64" cy="761.886" rx="3" ry="3" fill="#000" style="stroke:#000;stroke-width:1;"/></g><text x="383.64" y="764.886" fill="#000" font-size="13" textLength="140.182">is_available : boolean</text><text x="383.64" y="780.019" fill="#000" font-size="13" textLength="121.228">stock_qty : integer</text><text x="383.64" y="795.152" fill="#000" font-size="13" textLength="189.04">«UQ (venue_id, external_id)»</text></g><!--class carts--><g class="entity" data-qualified-name="carts" id="ent0007" data-source-line="76"><rect x="169.38" y="662.717" width="160.561" height="86.531" fill="#F5F7FA" style="stroke:#4A6785;stroke-width:0.5;" rx="2.5" ry="2.5"/><text x="233.496" y="679.784" fill="#1F2933" font-size="13" textLength="32.329">carts</text><line x1="170.38" y1="687.85" x2="328.941" y2="687.85" style="stroke:#4A6785;stroke-width:0.5;"/><g data-visibility-modifier="IE_MANDATORY"><ellipse cx="180.38" cy="700.916" rx="3" ry="3" fill="#000" style="stroke:#000;stroke-width:1;"/></g><text x="188.38" y="703.917" fill="#000" font-size="13" textLength="89.254">id : uuid «PK»</text><line x1="170.38" y1="710.983" x2="328.941" y2="710.983" style="stroke:#4A6785;stroke-width:1;"/><g data-visibility-modifier="IE_MANDATORY"><ellipse cx="180.38" cy="724.049" rx="3" ry="3" fill="#000" style="stroke:#000;stroke-width:1;"/></g><text x="188.38" y="727.049" fill="#000" font-size="13" textLength="127.493">user_id : uuid «UQ»</text><text x="188.38" y="742.182" fill="#000" font-size="13" textLength="135.561">venue_id : uuid «FK»</text></g><!--class cart_items--><g class="entity" data-qualified-name="cart_items" id="ent0008" data-source-line="83"><rect x="200.42" y="877.347" width="218.489" height="131.93" fill="#F5F7FA" style="stroke:#4A6785;stroke-width:0.5;" rx="2.5" ry="2.5"/><text x="275.565" y="894.414" fill="#1F2933" font-size="13" textLength="68.199">cart_items</text><line x1="201.42" y1="902.48" x2="417.909" y2="902.48" style="stroke:#4A6785;stroke-width:0.5;"/><g data-visibility-modifier="IE_MANDATORY"><ellipse cx="211.42" cy="915.546" rx="3" ry="3" fill="#000" style="stroke:#000;stroke-width:1;"/></g><text x="219.42" y="918.547" fill="#000" font-size="13" textLength="89.254">id : uuid «PK»</text><line x1="201.42" y1="925.613" x2="417.909" y2="925.613" style="stroke:#4A6785;stroke-width:1;"/><g data-visibility-modifier="IE_MANDATORY"><ellipse cx="211.42" cy="938.679" rx="3" ry="3" fill="#000" style="stroke:#000;stroke-width:1;"/></g><text x="219.42" y="941.679" fill="#000" font-size="13" textLength="120.948">cart_id : uuid «FK»</text><g data-visibility-modifier="IE_MANDATORY"><ellipse cx="211.42" cy="953.812" rx="3" ry="3" fill="#000" style="stroke:#000;stroke-width:1;"/></g><text x="219.42" y="956.812" fill="#000" font-size="13" textLength="168.403">menu_item_id : uuid «FK»</text><g data-visibility-modifier="IE_MANDATORY"><ellipse cx="211.42" cy="968.945" rx="3" ry="3" fill="#000" style="stroke:#000;stroke-width:1;"/></g><text x="219.42" y="971.945" fill="#000" font-size="13" textLength="80.228">qty : integer</text><g data-visibility-modifier="IE_MANDATORY"><ellipse cx="211.42" cy="984.077" rx="3" ry="3" fill="#000" style="stroke:#000;stroke-width:1;"/></g><text x="219.42" y="987.078" fill="#000" font-size="13" textLength="147.856">price_snapshot : bigint</text><text x="219.42" y="1002.211" fill="#000" font-size="13" textLength="193.489">«UQ (cart_id, menu_item_id)»</text></g><!--class orders--><g class="entity" data-qualified-name="orders" id="ent0009" data-source-line="93"><rect x="623.01" y="311.897" width="171.307" height="237.859" fill="#F5F7FA" style="stroke:#4A6785;stroke-width:0.5;" rx="2.5" ry="2.5"/><text x="687.831" y="328.964" fill="#1F2933" font-size="13" textLength="41.666">orders</text><line x1="624.01" y1="337.03" x2="793.317" y2="337.03" style="stroke:#4A6785;stroke-width:0.5;"/><g data-visibility-modifier="IE_MANDATORY"><ellipse cx="634.01" cy="350.096" rx="3" ry="3" fill="#000" style="stroke:#000;stroke-width:1;"/></g><text x="642.01" y="353.097" fill="#000" font-size="13" textLength="89.254">id : uuid «PK»</text><line x1="624.01" y1="360.163" x2="793.317" y2="360.163" style="stroke:#4A6785;stroke-width:1;"/><g data-visibility-modifier="IE_MANDATORY"><ellipse cx="634.01" cy="373.229" rx="3" ry="3" fill="#000" style="stroke:#000;stroke-width:1;"/></g><text x="642.01" y="376.229" fill="#000" font-size="13" textLength="129.054">number : text «UQ»</text><g data-visibility-modifier="IE_MANDATORY"><ellipse cx="634.01" cy="388.362" rx="3" ry="3" fill="#000" style="stroke:#000;stroke-width:1;"/></g><text x="642.01" y="391.362" fill="#000" font-size="13" textLength="87.706">user_id : uuid</text><g data-visibility-modifier="IE_MANDATORY"><ellipse cx="634.01" cy="403.495" rx="3" ry="3" fill="#000" style="stroke:#000;stroke-width:1;"/></g><text x="642.01" y="406.495" fill="#000" font-size="13" textLength="135.561">venue_id : uuid «FK»</text><g data-visibility-modifier="IE_MANDATORY"><ellipse cx="634.01" cy="418.627" rx="3" ry="3" fill="#000" style="stroke:#000;stroke-width:1;"/></g><text x="642.01" y="421.628" fill="#000" font-size="13" textLength="133.929">status : order_status</text><g data-visibility-modifier="IE_MANDATORY"><ellipse cx="634.01" cy="433.76" rx="3" ry="3" fill="#000" style="stroke:#000;stroke-width:1;"/></g><text x="642.01" y="436.761" fill="#000" font-size="13" textLength="122.078">items_total : bigint</text><g data-visibility-modifier="IE_MANDATORY"><ellipse cx="634.01" cy="448.893" rx="3" ry="3" fill="#000" style="stroke:#000;stroke-width:1;"/></g><text x="642.01" y="451.893" fill="#000" font-size="13" textLength="128.984">delivery_fee : bigint</text><g data-visibility-modifier="IE_MANDATORY"><ellipse cx="634.01" cy="464.026" rx="3" ry="3" fill="#000" style="stroke:#000;stroke-width:1;"/></g><text x="642.01" y="467.026" fill="#000" font-size="13" textLength="79.435">total : bigint</text><text x="642.01" y="482.159" fill="#000" font-size="13" textLength="89.889">address : text</text><g data-visibility-modifier="IE_MANDATORY"><ellipse cx="634.01" cy="494.291" rx="3" ry="3" fill="#000" style="stroke:#000;stroke-width:1;"/></g><text x="642.01" y="497.292" fill="#000" font-size="13" textLength="79.212">phone : text</text><text x="642.01" y="512.425" fill="#000" font-size="13" textLength="139.369">eta_minutes : integer</text><text x="642.01" y="527.558" fill="#000" font-size="13" textLength="146.307">rejection_reason : text</text><g data-visibility-modifier="IE_MANDATORY"><ellipse cx="634.01" cy="539.69" rx="3" ry="3" fill="#000" style="stroke:#000;stroke-width:1;"/></g><text x="642.01" y="542.69" fill="#000" font-size="13" textLength="97.322">version : bigint</text></g><!--class order_items--><g class="entity" data-qualified-name="order_items" id="ent0010" data-source-line="110"><rect x="484.29" y="862.217" width="234.752" height="162.195" fill="#F5F7FA" style="stroke:#4A6785;stroke-width:0.5;" rx="2.5" ry="2.5"/><text x="562.898" y="879.284" fill="#1F2933" font-size="13" textLength="77.537">order_items</text><line x1="485.29" y1="887.35" x2="718.042" y2="887.35" style="stroke:#4A6785;stroke-width:0.5;"/><g data-visibility-modifier="IE_MANDATORY"><ellipse cx="495.29" cy="900.416" rx="3" ry="3" fill="#000" style="stroke:#000;stroke-width:1;"/></g><text x="503.29" y="903.417" fill="#000" font-size="13" textLength="89.254">id : uuid «PK»</text><line x1="485.29" y1="910.483" x2="718.042" y2="910.483" style="stroke:#4A6785;stroke-width:1;"/><g data-visibility-modifier="IE_MANDATORY"><ellipse cx="495.29" cy="923.549" rx="3" ry="3" fill="#000" style="stroke:#000;stroke-width:1;"/></g><text x="503.29" y="926.549" fill="#000" font-size="13" textLength="130.286">order_id : uuid «FK»</text><text x="503.29" y="941.682" fill="#000" font-size="13" textLength="168.403">menu_item_id : uuid «FK»</text><g data-visibility-modifier="IE_MANDATORY"><ellipse cx="495.29" cy="953.815" rx="3" ry="3" fill="#000" style="stroke:#000;stroke-width:1;"/></g><text x="503.29" y="956.815" fill="#000" font-size="13" textLength="110.843">external_id : text</text><g data-visibility-modifier="IE_MANDATORY"><ellipse cx="495.29" cy="968.947" rx="3" ry="3" fill="#000" style="stroke:#000;stroke-width:1;"/></g><text x="503.29" y="971.948" fill="#000" font-size="13" textLength="141.191">name_snapshot : text</text><g data-visibility-modifier="IE_MANDATORY"><ellipse cx="495.29" cy="984.08" rx="3" ry="3" fill="#000" style="stroke:#000;stroke-width:1;"/></g><text x="503.29" y="987.081" fill="#000" font-size="13" textLength="147.856">price_snapshot : bigint</text><g data-visibility-modifier="IE_MANDATORY"><ellipse cx="495.29" cy="999.213" rx="3" ry="3" fill="#000" style="stroke:#000;stroke-width:1;"/></g><text x="503.29" y="1002.213" fill="#000" font-size="13" textLength="80.228">qty : integer</text><text x="503.29" y="1017.346" fill="#000" font-size="13" textLength="209.752">line_total : bigint «GENERATED»</text></g><!--class history--><g class="entity" data-qualified-name="history" id="ent0011" data-source-line="122"><rect x="684.68" y="632.447" width="195.968" height="147.063" fill="#F5F7FA" style="stroke:#4A6785;stroke-width:0.5;" rx="2.5" ry="2.5"/><text x="716.388" y="649.514" fill="#1F2933" font-size="13" textLength="132.552">order_status_history</text><line x1="685.68" y1="657.58" x2="879.648" y2="657.58" style="stroke:#4A6785;stroke-width:0.5;"/><g data-visibility-modifier="IE_MANDATORY"><ellipse cx="695.68" cy="670.646" rx="3" ry="3" fill="#000" style="stroke:#000;stroke-width:1;"/></g><text x="703.68" y="673.647" fill="#000" font-size="13" textLength="165.68">id : bigint «PK, IDENTITY»</text><line x1="685.68" y1="680.713" x2="879.648" y2="680.713" style="stroke:#4A6785;stroke-width:1;"/><g data-visibility-modifier="IE_MANDATORY"><ellipse cx="695.68" cy="693.779" rx="3" ry="3" fill="#000" style="stroke:#000;stroke-width:1;"/></g><text x="703.68" y="696.779" fill="#000" font-size="13" textLength="130.286">order_id : uuid «FK»</text><text x="703.68" y="711.912" fill="#000" font-size="13" textLength="170.968">from_status : order_status</text><g data-visibility-modifier="IE_MANDATORY"><ellipse cx="695.68" cy="724.045" rx="3" ry="3" fill="#000" style="stroke:#000;stroke-width:1;"/></g><text x="703.68" y="727.045" fill="#000" font-size="13" textLength="153.48">to_status : order_status</text><g data-visibility-modifier="IE_MANDATORY"><ellipse cx="695.68" cy="739.177" rx="3" ry="3" fill="#000" style="stroke:#000;stroke-width:1;"/></g><text x="703.68" y="742.178" fill="#000" font-size="13" textLength="121.056">actor : order_actor</text><text x="703.68" y="757.311" fill="#000" font-size="13" textLength="82.805">reason : text</text><g data-visibility-modifier="IE_MANDATORY"><ellipse cx="695.68" cy="769.443" rx="3" ry="3" fill="#000" style="stroke:#000;stroke-width:1;"/></g><text x="703.68" y="772.443" fill="#000" font-size="13" textLength="164.055">created_at : timestamptz</text></g><!--class idempotency--><g class="entity" data-qualified-name="idempotency" id="ent0012" data-source-line="133"><rect x="723.68" y="66.997" width="189.963" height="162.195" fill="#F5F7FA" style="stroke:#4A6785;stroke-width:0.5;" rx="2.5" ry="2.5"/><text x="757.962" y="84.064" fill="#1F2933" font-size="13" textLength="121.399">idempotency_keys</text><line x1="724.68" y1="92.13" x2="912.643" y2="92.13" style="stroke:#4A6785;stroke-width:0.5;"/><g data-visibility-modifier="IE_MANDATORY"><ellipse cx="734.68" cy="105.196" rx="3" ry="3" fill="#000" style="stroke:#000;stroke-width:1;"/></g><text x="742.68" y="108.197" fill="#000" font-size="13" textLength="87.706">user_id : uuid</text><g data-visibility-modifier="IE_MANDATORY"><ellipse cx="734.68" cy="120.329" rx="3" ry="3" fill="#000" style="stroke:#000;stroke-width:1;"/></g><text x="742.68" y="123.329" fill="#000" font-size="13" textLength="61.75">key : text</text><line x1="724.68" y1="130.395" x2="912.643" y2="130.395" style="stroke:#4A6785;stroke-width:1;"/><g data-visibility-modifier="IE_MANDATORY"><ellipse cx="734.68" cy="143.462" rx="3" ry="3" fill="#000" style="stroke:#000;stroke-width:1;"/></g><text x="742.68" y="146.462" fill="#000" font-size="13" textLength="96.173">endpoint : text</text><g data-visibility-modifier="IE_MANDATORY"><ellipse cx="734.68" cy="158.595" rx="3" ry="3" fill="#000" style="stroke:#000;stroke-width:1;"/></g><text x="742.68" y="161.595" fill="#000" font-size="13" textLength="137.071">request_hash : bytea</text><text x="742.68" y="176.728" fill="#000" font-size="13" textLength="164.963">response_status : integer</text><text x="742.68" y="191.861" fill="#000" font-size="13" textLength="145.457">response_body : jsonb</text><g data-visibility-modifier="IE_MANDATORY"><ellipse cx="734.68" cy="203.993" rx="3" ry="3" fill="#000" style="stroke:#000;stroke-width:1;"/></g><text x="742.68" y="206.993" fill="#000" font-size="13" textLength="161.922">expires_at : timestamptz</text><text x="742.68" y="222.126" fill="#000" font-size="13" textLength="124.75">«PK (user_id, key)»</text></g><!--class outbox--><g class="entity" data-qualified-name="outbox" id="ent0013" data-source-line="145"><rect x="1125.42" y="44.297" width="202.48" height="207.594" fill="#F5F7FA" style="stroke:#4A6785;stroke-width:0.5;" rx="2.5" ry="2.5"/><text x="1168.217" y="61.364" fill="#1F2933" font-size="13" textLength="116.886">outbox_messages</text><line x1="1126.42" y1="69.43" x2="1326.9" y2="69.43" style="stroke:#4A6785;stroke-width:0.5;"/><g data-visibility-modifier="IE_MANDATORY"><ellipse cx="1136.42" cy="82.496" rx="3" ry="3" fill="#000" style="stroke:#000;stroke-width:1;"/></g><text x="1144.42" y="85.497" fill="#000" font-size="13" textLength="165.68">id : bigint «PK, IDENTITY»</text><line x1="1126.42" y1="92.563" x2="1326.9" y2="92.563" style="stroke:#4A6785;stroke-width:1;"/><g data-visibility-modifier="IE_MANDATORY"><ellipse cx="1136.42" cy="105.629" rx="3" ry="3" fill="#000" style="stroke:#000;stroke-width:1;"/></g><text x="1144.42" y="108.629" fill="#000" font-size="13" textLength="136.164">event_id : uuid «UQ»</text><g data-visibility-modifier="IE_MANDATORY"><ellipse cx="1136.42" cy="120.762" rx="3" ry="3" fill="#000" style="stroke:#000;stroke-width:1;"/></g><text x="1144.42" y="123.762" fill="#000" font-size="13" textLength="70.592">topic : text</text><g data-visibility-modifier="IE_MANDATORY"><ellipse cx="1136.42" cy="135.895" rx="3" ry="3" fill="#000" style="stroke:#000;stroke-width:1;"/></g><text x="1144.42" y="138.895" fill="#000" font-size="13" textLength="61.75">key : text</text><g data-visibility-modifier="IE_MANDATORY"><ellipse cx="1136.42" cy="151.027" rx="3" ry="3" fill="#000" style="stroke:#000;stroke-width:1;"/></g><text x="1144.42" y="154.028" fill="#000" font-size="13" textLength="111.097">event_type : text</text><g data-visibility-modifier="IE_MANDATORY"><ellipse cx="1136.42" cy="166.16" rx="3" ry="3" fill="#000" style="stroke:#000;stroke-width:1;"/></g><text x="1144.42" y="169.161" fill="#000" font-size="13" textLength="126.477">aggregate_id : uuid</text><g data-visibility-modifier="IE_MANDATORY"><ellipse cx="1136.42" cy="181.293" rx="3" ry="3" fill="#000" style="stroke:#000;stroke-width:1;"/></g><text x="1144.42" y="184.293" fill="#000" font-size="13" textLength="170.949">aggregate_version : bigint</text><g data-visibility-modifier="IE_MANDATORY"><ellipse cx="1136.42" cy="196.426" rx="3" ry="3" fill="#000" style="stroke:#000;stroke-width:1;"/></g><text x="1144.42" y="199.426" fill="#000" font-size="13" textLength="99.169">payload : jsonb</text><text x="1144.42" y="214.559" fill="#000" font-size="13" textLength="177.48">published_at : timestamptz</text><g data-visibility-modifier="IE_MANDATORY"><ellipse cx="1136.42" cy="226.691" rx="3" ry="3" fill="#000" style="stroke:#000;stroke-width:1;"/></g><text x="1144.42" y="229.692" fill="#000" font-size="13" textLength="118.13">attempts : integer</text><text x="1144.42" y="244.825" fill="#000" font-size="13" textLength="100.464">last_error : text</text></g><!--class processed--><g class="entity" data-qualified-name="processed" id="ent0014" data-source-line="160"><rect x="1362.79" y="97.267" width="205.743" height="101.664" fill="#F5F7FA" style="stroke:#4A6785;stroke-width:0.5;" rx="2.5" ry="2.5"/><text x="1407.266" y="114.334" fill="#1F2933" font-size="13" textLength="116.791">processed_events</text><line x1="1363.79" y1="122.4" x2="1567.533" y2="122.4" style="stroke:#4A6785;stroke-width:0.5;"/><g data-visibility-modifier="IE_MANDATORY"><ellipse cx="1373.79" cy="135.466" rx="3" ry="3" fill="#000" style="stroke:#000;stroke-width:1;"/></g><text x="1381.79" y="138.467" fill="#000" font-size="13" textLength="102.889">consumer : text</text><g data-visibility-modifier="IE_MANDATORY"><ellipse cx="1373.79" cy="150.599" rx="3" ry="3" fill="#000" style="stroke:#000;stroke-width:1;"/></g><text x="1381.79" y="153.599" fill="#000" font-size="13" textLength="96.376">event_id : uuid</text><line x1="1363.79" y1="160.665" x2="1567.533" y2="160.665" style="stroke:#4A6785;stroke-width:1;"/><g data-visibility-modifier="IE_MANDATORY"><ellipse cx="1373.79" cy="173.732" rx="3" ry="3" fill="#000" style="stroke:#000;stroke-width:1;"/></g><text x="1381.79" y="176.732" fill="#000" font-size="13" textLength="180.743">processed_at : timestamptz</text><text x="1381.79" y="191.865" fill="#000" font-size="13" textLength="174.561">«PK (consumer, event_id)»</text></g><g class="entity" data-qualified-name="GMN28" id="ent0029" data-source-line="183"><path d="M1056.9,403.127 L1056.9,458.525 A0,0 0 0 0 1056.9,458.525 L1396.419,458.525 A0,0 0 0 0 1396.419,458.525 L1396.419,413.127 L1386.419,403.127 L1230.66,403.127 L1226.66,252.167 L1222.66,403.127 L1056.9,403.127 A0,0 0 0 0 1056.9,403.127" style="stroke:#181818;stroke-width:0.5;" fill="#FEFFDD"/><path d="M1386.419,403.127 L1386.419,413.127 L1396.419,413.127 L1386.419,403.127" style="stroke:#181818;stroke-width:0.5;" fill="#FEFFDD"/><text x="1062.9" y="420.194" fill="#000" font-size="13" textLength="248.549">Ни одной внешней ссылки: событие</text><text x="1062.9" y="435.327" fill="#000" font-size="13" textLength="269.331">переживает удаление своего агрегата</text><text x="1062.9" y="450.459" fill="#000" font-size="13" textLength="318.519">и публикуется джобой outbox по ORDER BY id.</text></g><g class="entity" data-qualified-name="GMN31" id="ent0032" data-source-line="189"><path d="M419.09,1084.407 L419.09,1139.805 A0,0 0 0 0 419.09,1139.805 L784.228,1139.805 A0,0 0 0 0 784.228,1139.805 L784.228,1094.407 L774.228,1084.407 L605.66,1084.407 L601.66,1024.747 L597.66,1084.407 L419.09,1084.407 A0,0 0 0 0 419.09,1084.407" style="stroke:#181818;stroke-width:0.5;" fill="#FEFFDD"/><path d="M774.228,1084.407 L774.228,1094.407 L784.228,1094.407 L774.228,1084.407" style="stroke:#181818;stroke-width:0.5;" fill="#FEFFDD"/><text x="425.09" y="1101.474" fill="#000" font-size="13" textLength="303.837">name_snapshot и price_snapshot копируются</text><text x="425.09" y="1116.607" fill="#000" font-size="13" textLength="344.138">при оформлении: заказ — финансовый документ,</text><text x="425.09" y="1131.739" fill="#000" font-size="13" textLength="273.609">он не пересчитывается задним числом.</text></g><!--link venues to venue_cuisines--><g class="link" data-entity-1="ent0001" data-entity-2="ent0003" id="lnk15" data-source-line="168" data-link-type="crowfoot"><path d="M379.09,216.807 C289.92,216.807 182.92,216.807 182.92,216.807 C182.92,216.807 182.92,306.677 182.92,369.257" style="stroke:#4A6785;stroke-width:1;" fill="none" id="venues-venue_cuisines" codeLine="168"/><line x1="383.09" y1="212.807" x2="383.09" y2="220.807" style="stroke:#4A6785;stroke-width:1;"/><line x1="380.09" y1="212.807" x2="380.09" y2="220.807" style="stroke:#4A6785;stroke-width:1;"/><line x1="379.09" y1="216.807" x2="387.09" y2="216.807" style="stroke:#4A6785;stroke-width:1;"/><line x1="182.92" y1="379.257" x2="188.92" y2="387.257" style="stroke:#4A6785;stroke-width:1;"/><line x1="182.92" y1="379.257" x2="176.92" y2="387.257" style="stroke:#4A6785;stroke-width:1;"/><line x1="182.92" y1="379.257" x2="182.92" y2="387.257" style="stroke:#4A6785;stroke-width:1;"/><ellipse cx="182.92" cy="373.257" rx="4" ry="4" fill="none" style="stroke:#4A6785;stroke-width:1;"/></g><!--link cuisines to venue_cuisines--><g class="link" data-entity-1="ent0002" data-entity-2="ent0003" id="lnk16" data-source-line="169" data-link-type="crowfoot"><path d="M101.66,207.297 C101.66,261.077 101.66,318.757 101.66,369.417" style="stroke:#4A6785;stroke-width:1;" fill="none" id="cuisines-venue_cuisines" codeLine="169"/><line x1="97.66" y1="203.297" x2="105.66" y2="203.297" style="stroke:#4A6785;stroke-width:1;"/><line x1="97.66" y1="206.297" x2="105.66" y2="206.297" style="stroke:#4A6785;stroke-width:1;"/><line x1="101.66" y1="207.297" x2="101.66" y2="199.297" style="stroke:#4A6785;stroke-width:1;"/><line x1="101.66" y1="379.417" x2="107.66" y2="387.417" style="stroke:#4A6785;stroke-width:1;"/><line x1="101.66" y1="379.417" x2="95.66" y2="387.417" style="stroke:#4A6785;stroke-width:1;"/><line x1="101.66" y1="379.417" x2="101.66" y2="387.417" style="stroke:#4A6785;stroke-width:1;"/><ellipse cx="101.66" cy="373.417" rx="4" ry="4" fill="none" style="stroke:#4A6785;stroke-width:1;"/></g><!--link venues to keys--><g class="link" data-entity-1="ent0001" data-entity-2="ent0004" id="lnk17" data-source-line="170" data-link-type="crowfoot"><path d="M600.28,240.807 C713.42,240.807 871.65,240.807 871.65,240.807 C871.65,240.807 871.65,305.377 871.65,361.647" style="stroke:#4A6785;stroke-width:1;" fill="none" id="venues-keys" codeLine="170"/><line x1="596.28" y1="244.807" x2="596.28" y2="236.807" style="stroke:#4A6785;stroke-width:1;"/><line x1="599.28" y1="244.807" x2="599.28" y2="236.807" style="stroke:#4A6785;stroke-width:1;"/><line x1="600.28" y1="240.807" x2="592.28" y2="240.807" style="stroke:#4A6785;stroke-width:1;"/><line x1="871.65" y1="371.647" x2="877.65" y2="379.647" style="stroke:#4A6785;stroke-width:1;"/><line x1="871.65" y1="371.647" x2="865.65" y2="379.647" style="stroke:#4A6785;stroke-width:1;"/><line x1="871.65" y1="371.647" x2="871.65" y2="379.647" style="stroke:#4A6785;stroke-width:1;"/><ellipse cx="871.65" cy="365.647" rx="4" ry="4" fill="none" style="stroke:#4A6785;stroke-width:1;"/></g><!--link venues to categories--><g class="link" data-entity-1="ent0001" data-entity-2="ent0005" id="lnk18" data-source-line="171" data-link-type="crowfoot"><path d="M452.1,260.167 C452.1,297.797 452.1,313.227 452.1,346.707" style="stroke:#4A6785;stroke-width:1;" fill="none" id="venues-categories" codeLine="171"/><line x1="448.1" y1="256.167" x2="456.1" y2="256.167" style="stroke:#4A6785;stroke-width:1;"/><line x1="448.1" y1="259.167" x2="456.1" y2="259.167" style="stroke:#4A6785;stroke-width:1;"/><line x1="452.1" y1="260.167" x2="452.1" y2="252.167" style="stroke:#4A6785;stroke-width:1;"/><line x1="452.1" y1="356.707" x2="458.1" y2="364.707" style="stroke:#4A6785;stroke-width:1;"/><line x1="452.1" y1="356.707" x2="446.1" y2="364.707" style="stroke:#4A6785;stroke-width:1;"/><line x1="452.1" y1="356.707" x2="452.1" y2="364.707" style="stroke:#4A6785;stroke-width:1;"/><ellipse cx="452.1" cy="350.707" rx="4" ry="4" fill="none" style="stroke:#4A6785;stroke-width:1;"/></g><!--link venues to items--><g class="link" data-entity-1="ent0001" data-entity-2="ent0006" id="lnk19" data-source-line="172" data-link-type="crowfoot"><path d="M547.68,260.377 C547.68,362.877 547.68,492.017 547.68,591.677" style="stroke:#4A6785;stroke-width:1;" fill="none" id="venues-items" codeLine="172"/><line x1="543.68" y1="256.377" x2="551.68" y2="256.377" style="stroke:#4A6785;stroke-width:1;"/><line x1="543.68" y1="259.377" x2="551.68" y2="259.377" style="stroke:#4A6785;stroke-width:1;"/><line x1="547.68" y1="260.377" x2="547.68" y2="252.377" style="stroke:#4A6785;stroke-width:1;"/><line x1="547.68" y1="601.677" x2="553.68" y2="609.677" style="stroke:#4A6785;stroke-width:1;"/><line x1="547.68" y1="601.677" x2="541.68" y2="609.677" style="stroke:#4A6785;stroke-width:1;"/><line x1="547.68" y1="601.677" x2="547.68" y2="609.677" style="stroke:#4A6785;stroke-width:1;"/><ellipse cx="547.68" cy="595.677" rx="4" ry="4" fill="none" style="stroke:#4A6785;stroke-width:1;"/></g><!--link categories to items--><g class="link" data-entity-1="ent0005" data-entity-2="ent0006" id="lnk20" data-source-line="173" data-link-type="crowfoot"><path d="M440.66,505.077 C440.66,538.717 440.66,554.207 440.66,591.327" style="stroke:#4A6785;stroke-width:1;" fill="none" id="categories-items" codeLine="173"/><line x1="436.66" y1="501.077" x2="444.66" y2="501.077" style="stroke:#4A6785;stroke-width:1;"/><line x1="436.66" y1="504.077" x2="444.66" y2="504.077" style="stroke:#4A6785;stroke-width:1;"/><line x1="440.66" y1="505.077" x2="440.66" y2="497.077" style="stroke:#4A6785;stroke-width:1;"/><line x1="440.66" y1="601.327" x2="446.66" y2="609.327" style="stroke:#4A6785;stroke-width:1;"/><line x1="440.66" y1="601.327" x2="434.66" y2="609.327" style="stroke:#4A6785;stroke-width:1;"/><line x1="440.66" y1="601.327" x2="440.66" y2="609.327" style="stroke:#4A6785;stroke-width:1;"/><ellipse cx="440.66" cy="595.327" rx="4" ry="4" fill="none" style="stroke:#4A6785;stroke-width:1;"/></g><!--link venues to orders--><g class="link" data-entity-1="ent0001" data-entity-2="ent0009" id="lnk21" data-source-line="174" data-link-type="crowfoot"><path d="M585.25,260.377 C585.25,304.907 585.25,338.807 585.25,338.807 C585.25,338.807 583.71,338.807 604.61,338.807" style="stroke:#4A6785;stroke-width:1;" fill="none" id="venues-orders" codeLine="174"/><line x1="581.25" y1="256.377" x2="589.25" y2="256.377" style="stroke:#4A6785;stroke-width:1;"/><line x1="581.25" y1="259.377" x2="589.25" y2="259.377" style="stroke:#4A6785;stroke-width:1;"/><line x1="585.25" y1="260.377" x2="585.25" y2="252.377" style="stroke:#4A6785;stroke-width:1;"/><line x1="614.61" y1="338.807" x2="622.61" y2="332.807" style="stroke:#4A6785;stroke-width:1;"/><line x1="614.61" y1="338.807" x2="622.61" y2="344.807" style="stroke:#4A6785;stroke-width:1;"/><line x1="614.61" y1="338.807" x2="622.61" y2="338.807" style="stroke:#4A6785;stroke-width:1;"/><ellipse cx="608.61" cy="338.807" rx="4" ry="4" fill="none" style="stroke:#4A6785;stroke-width:1;"/></g><!--link venues to carts--><g class="link" data-entity-1="ent0001" data-entity-2="ent0007" id="lnk22" data-source-line="175" data-link-type="association"><path d="M379.11,233.807 C313.83,233.807 249.49,233.807 249.49,233.807 C249.49,233.807 249.49,530.517 249.49,647.407" style="stroke:#4A6785;stroke-width:1;" fill="none" id="venues-carts" codeLine="175"/><line x1="383.11" y1="229.807" x2="383.11" y2="237.807" style="stroke:#4A6785;stroke-width:1;"/><line x1="380.11" y1="229.807" x2="380.11" y2="237.807" style="stroke:#4A6785;stroke-width:1;"/><line x1="379.11" y1="233.807" x2="387.11" y2="233.807" style="stroke:#4A6785;stroke-width:1;"/><line x1="249.49" y1="651.407" x2="249.49" y2="662.407" style="stroke:#4A6785;stroke-width:1;"/><ellipse cx="249.49" cy="651.407" rx="4" ry="4" fill="none" style="stroke:#4A6785;stroke-width:1;"/><line x1="253.49" y1="658.407" x2="245.49" y2="658.407" style="stroke:#4A6785;stroke-width:1;"/></g><!--link carts to cart_items--><g class="link" data-entity-1="ent0007" data-entity-2="ent0008" id="lnk23" data-source-line="176" data-link-type="crowfoot"><path d="M265.18,757.517 C265.18,793.237 265.18,818.407 265.18,859.197" style="stroke:#4A6785;stroke-width:1;" fill="none" id="carts-cart_items" codeLine="176"/><line x1="261.18" y1="753.517" x2="269.18" y2="753.517" style="stroke:#4A6785;stroke-width:1;"/><line x1="261.18" y1="756.517" x2="269.18" y2="756.517" style="stroke:#4A6785;stroke-width:1;"/><line x1="265.18" y1="757.517" x2="265.18" y2="749.517" style="stroke:#4A6785;stroke-width:1;"/><line x1="265.18" y1="869.197" x2="271.18" y2="877.197" style="stroke:#4A6785;stroke-width:1;"/><line x1="265.18" y1="869.197" x2="259.18" y2="877.197" style="stroke:#4A6785;stroke-width:1;"/><line x1="265.18" y1="869.197" x2="265.18" y2="877.197" style="stroke:#4A6785;stroke-width:1;"/><ellipse cx="265.18" cy="863.197" rx="4" ry="4" fill="none" style="stroke:#4A6785;stroke-width:1;"/></g><!--link items to cart_items--><g class="link" data-entity-1="ent0006" data-entity-2="ent0008" id="lnk24" data-source-line="177" data-link-type="crowfoot"><path d="M391.78,810.517 C391.78,835.537 391.78,835.927 391.78,859.007" style="stroke:#4A6785;stroke-width:1;" fill="none" id="items-cart_items" codeLine="177"/><line x1="387.78" y1="806.517" x2="395.78" y2="806.517" style="stroke:#4A6785;stroke-width:1;"/><line x1="387.78" y1="809.517" x2="395.78" y2="809.517" style="stroke:#4A6785;stroke-width:1;"/><line x1="391.78" y1="810.517" x2="391.78" y2="802.517" style="stroke:#4A6785;stroke-width:1;"/><line x1="391.78" y1="869.007" x2="397.78" y2="877.007" style="stroke:#4A6785;stroke-width:1;"/><line x1="391.78" y1="869.007" x2="385.78" y2="877.007" style="stroke:#4A6785;stroke-width:1;"/><line x1="391.78" y1="869.007" x2="391.78" y2="877.007" style="stroke:#4A6785;stroke-width:1;"/><ellipse cx="391.78" cy="863.007" rx="4" ry="4" fill="none" style="stroke:#4A6785;stroke-width:1;"/></g><!--link orders to order_items--><g class="link" data-entity-1="ent0009" data-entity-2="ent0010" id="lnk25" data-source-line="178" data-link-type="crowfoot"><path d="M653.85,558.007 C653.85,653.827 653.85,759.877 653.85,843.927" style="stroke:#4A6785;stroke-width:1;" fill="none" id="orders-order_items" codeLine="178"/><line x1="649.85" y1="554.007" x2="657.85" y2="554.007" style="stroke:#4A6785;stroke-width:1;"/><line x1="649.85" y1="557.007" x2="657.85" y2="557.007" style="stroke:#4A6785;stroke-width:1;"/><line x1="653.85" y1="558.007" x2="653.85" y2="550.007" style="stroke:#4A6785;stroke-width:1;"/><line x1="653.85" y1="853.927" x2="659.85" y2="861.927" style="stroke:#4A6785;stroke-width:1;"/><line x1="653.85" y1="853.927" x2="647.85" y2="861.927" style="stroke:#4A6785;stroke-width:1;"/><line x1="653.85" y1="853.927" x2="653.85" y2="861.927" style="stroke:#4A6785;stroke-width:1;"/><ellipse cx="653.85" cy="847.927" rx="4" ry="4" fill="none" style="stroke:#4A6785;stroke-width:1;"/></g><!--link items to order_items--><g class="link" data-entity-1="ent0006" data-entity-2="ent0010" id="lnk26" data-source-line="179" data-link-type="crowfoot"><path d="M531.49,810.517 C531.49,830.277 531.49,824.887 531.49,844.047" style="stroke:#4A6785;stroke-width:1;" fill="none" id="items-order_items" codeLine="179"/><line x1="527.49" y1="806.517" x2="535.49" y2="806.517" style="stroke:#4A6785;stroke-width:1;"/><line x1="527.49" y1="809.517" x2="535.49" y2="809.517" style="stroke:#4A6785;stroke-width:1;"/><line x1="531.49" y1="810.517" x2="531.49" y2="802.517" style="stroke:#4A6785;stroke-width:1;"/><line x1="531.49" y1="854.047" x2="537.49" y2="862.047" style="stroke:#4A6785;stroke-width:1;"/><line x1="531.49" y1="854.047" x2="525.49" y2="862.047" style="stroke:#4A6785;stroke-width:1;"/><line x1="531.49" y1="854.047" x2="531.49" y2="862.047" style="stroke:#4A6785;stroke-width:1;"/><ellipse cx="531.49" cy="848.047" rx="4" ry="4" fill="none" style="stroke:#4A6785;stroke-width:1;"/></g><!--link orders to history--><g class="link" data-entity-1="ent0009" data-entity-2="ent0011" id="lnk27" data-source-line="180" data-link-type="crowfoot"><path d="M739.5,557.907 C739.5,585.797 739.5,588.717 739.5,613.977" style="stroke:#4A6785;stroke-width:1;" fill="none" id="orders-history" codeLine="180"/><line x1="735.5" y1="553.907" x2="743.5" y2="553.907" style="stroke:#4A6785;stroke-width:1;"/><line x1="735.5" y1="556.907" x2="743.5" y2="556.907" style="stroke:#4A6785;stroke-width:1;"/><line x1="739.5" y1="557.907" x2="739.5" y2="549.907" style="stroke:#4A6785;stroke-width:1;"/><line x1="739.5" y1="623.977" x2="745.5" y2="631.977" style="stroke:#4A6785;stroke-width:1;"/><line x1="739.5" y1="623.977" x2="733.5" y2="631.977" style="stroke:#4A6785;stroke-width:1;"/><line x1="739.5" y1="623.977" x2="739.5" y2="631.977" style="stroke:#4A6785;stroke-width:1;"/><ellipse cx="739.5" cy="617.977" rx="4" ry="4" fill="none" style="stroke:#4A6785;stroke-width:1;"/></g><?plantuml-src hLVTRXmr5BxVfx3AJHjjG2MKGbLLIac2gaYbX73Hgv5tnjbrTsOyjJrfjmrIce80LG8XzPOBtc2Ri4qQaiqhU5w19-7uPsSzivDie2XACZx7v-yxFxObbJ51we_Y1pLI9sg8r6_gDL9dwYyrBdvMG_MdEbP7w6f2knnBobBnKP_Ai4VIQwsMwDCqmnmdIFHmn9xGj8ksS2o8nubfIkGW8uXnsMCU8o9RE8_b6albD_GPGTUNMZqQ4HHI7iQ-XZ36Gg3dBOJkuh3VvInFeozOp3ZwOEt6sisrPSrXF2BSKJzP_lJcPpU0gdKxslMrZpzVMWBQCkViINNZTwqMIIML0tHbcwGv4LSG5iX-6hiBY4Re5ifp-7VxzeFrEtU0kBXeE2BEky2JvAa4thTV6zu2Id5271dM4H4Xfvd6RqfSG3YAE87OIbACPHl5PbF4yWva9kCaf0Bah1iYmA6asrfrXx6Ou9BECfBMg0bD0uDBW1C0JMesxTBK6ez838hu8DWYfCh1szqWPAmVW89S4kqVi4YNS1-gC0U_KWVMPF7_mBM0CYQeGwl1j4bDK76WId9kMABlpDgwC-XsDZ6DfzflT7MYeEtjlmQRPdp16GtwP61zqHzpWRZ0Dv0FUbZqT5O6ak0fK9niipw90gnpAMb2XCH99f_v3YMWE0WnWCOudQIdNBwFNv0SmbCSMswPgqla3faGV3mzNJL0ZVzKaiIwRhxUnsiN--3zOk8qh7L9OvYsHRSnZR7kNhyVXMHXFtWC8VutN4BCvIIRy3KNabn0u_jiLqFdG5Mpv6LWkfnhqsvjmhdCQZEx3ej3F10fpaIFLKQNXSoPQbSqro0pmyy6OJ_d1f3cIOVmXW5LHNDUpK5RobpFJJj-xTAQrZW6aaaSNtOSpsoUEJO0hHvBlO8b4ZSCRpq_7f5G5st02HRLmmYC2rlEpb0TIAyalFLSIDtUMPZcbCG5dUcNHRL56mjcjhpqfQIM133zvUhzrOtbpTMLXYfoEGnw5FgO3mmAxjj7eDJrOBsDxgsitj-yj_dmKcXiSPO4vzUDP1SmuKx0UCamAvFiUef38CavnmTSmPACIPA6W-c9vX5Tj0tz0Bkdnbou98qoHjDAeZXv31ShMJdYZBiYW-ibcSRfrwtZTLYaZJo2m3gkIZ8AtDcG9aUuSxIjtQkFXrnssDC0P0JkkfFIqlvLIWaC0jaqQNNMCXhwiLSmceYQwx5_BUnsEUb2fce0J-aplMeQ00zYXYCFdWoka5JqcZ9kz4belanMeORBjWm8N98dKz17BECi1BH0eV7SGbOI7MeXP2fFoYdQXD4KlAd6SpCuqTSkjRWykXlwpixY8djUkm6sogjWCxiggmkzHffUcMeCC_LQtesgGg_kjQTEXRXZZ--MFSHBOvCZjcM7wYpT7M2-uYO9dr4LSTEgrKgXaU5U8YLB4Djo5Gzegz_XeQV6yE8xXR_laDg7Zr7na_uBo-85_Bo2To6y1s_12lQyALuLU-f8ZRJq6UpTXPrlWR0F3yTHiOUAbw1j238ZK0BxjDW-28xKWHeZu1mOaGCr13r3hGKyE0EfDo1pf8xX2zI0tLyHA7ghJHhNN9U2pJ7wQcDbTGFTVGZT-Y4KQeHqVBDHUhYWsY42Hck71yGu1kL7nMxnilZ5Uc1Y17SrHiNtyBiBx-L9P828EeHuZk7t4Fsz-nh1bYDW3TMfWMeVe7kdWnYRg4wqNB7Nrah7wXHfZ4i8mTgFO7iFH1oG5e53ynpNvawGsV52lzBLYHVsFm00?></g></svg>